<svg xmlns="http://www.w3.org/2000/svg" width="1500" height="702" viewBox="0 0 1500 702"><defs><marker id="ah" markerWidth="12" markerHeight="12" refX="10" refY="6" orient="auto" markerUnits="userSpaceOnUse"><path d="M0,1 L10,6 L0,11 z" fill="#475569"/></marker></defs><rect width="1500" height="100%" fill="white"/><text x="30" y="46" font-family="Arial, 'Liberation Sans', Helvetica, sans-serif" font-size="26" font-weight="700" fill="#15253D">IndulgeApp: Solution overview</text><text x="30" y="72" font-family="Arial, 'Liberation Sans', Helvetica, sans-serif" font-size="15" fill="#64748B">Left to right: channels, processing, records and outputs. Numbers match the flow list below.</text><rect x="30" y="100" width="270" height="424" rx="12" fill="#F7F9FC" stroke="#D5DDE8" stroke-width="1.5"/><rect x="30" y="100" width="270" height="40" rx="12" fill="#15253D"/><rect x="30" y="120" width="270" height="20" fill="#15253D"/><text x="165.0" y="125.2" text-anchor="middle" font-family="Arial, 'Liberation Sans', Helvetica, sans-serif" font-size="15" font-weight="700" fill="white">1. Channels</text><rect x="50.0" y="225.0" width="230" height="84" rx="10" fill="white" stroke="#2563EB" stroke-width="2"/><text x="165.0" y="272.1" text-anchor="middle" font-family="Arial, 'Liberation Sans', Helvetica, sans-serif" font-size="14.5" font-weight="400" fill="#1E293B">Member mobile app</text><rect x="50.0" y="355.0" width="230" height="84" rx="10" fill="white" stroke="#2563EB" stroke-width="2"/><text x="165.0" y="402.1" text-anchor="middle" font-family="Arial, 'Liberation Sans', Helvetica, sans-serif" font-size="14.5" font-weight="400" fill="#1E293B">Leader and moderator console</text><rect x="420" y="100" width="270" height="424" rx="12" fill="#F7F9FC" stroke="#D5DDE8" stroke-width="1.5"/><rect x="420" y="100" width="270" height="40" rx="12" fill="#15253D"/><rect x="420" y="120" width="270" height="20" fill="#15253D"/><text x="555.0" y="125.2" text-anchor="middle" font-family="Arial, 'Liberation Sans', Helvetica, sans-serif" font-size="15" font-weight="700" fill="white">2. Services</text><rect x="440.0" y="225.0" width="230" height="84" rx="10" fill="white" stroke="#2563EB" stroke-width="2"/><text x="555.0" y="272.1" text-anchor="middle" font-family="Arial, 'Liberation Sans', Helvetica, sans-serif" font-size="14.5" font-weight="400" fill="#1E293B">Recommendation service</text><rect x="440.0" y="355.0" width="230" height="84" rx="10" fill="white" stroke="#2563EB" stroke-width="2"/><text x="555.0" y="393.1" text-anchor="middle" font-family="Arial, 'Liberation Sans', Helvetica, sans-serif" font-size="14.5" font-weight="400" fill="#1E293B">Verification and moderation</text><text x="555.0" y="411.1" text-anchor="middle" font-family="Arial, 'Liberation Sans', Helvetica, sans-serif" font-size="14.5" font-weight="400" fill="#1E293B">workflow</text><rect x="810" y="100" width="270" height="424" rx="12" fill="#F7F9FC" stroke="#D5DDE8" stroke-width="1.5"/><rect x="810" y="100" width="270" height="40" rx="12" fill="#15253D"/><rect x="810" y="120" width="270" height="20" fill="#15253D"/><text x="945.0" y="125.2" text-anchor="middle" font-family="Arial, 'Liberation Sans', Helvetica, sans-serif" font-size="15" font-weight="700" fill="white">3. Records</text><rect x="830.0" y="160.0" width="230" height="84" rx="10" fill="white" stroke="#2563EB" stroke-width="2"/><text x="945.0" y="207.1" text-anchor="middle" font-family="Arial, 'Liberation Sans', Helvetica, sans-serif" font-size="14.5" font-weight="400" fill="#1E293B">Groups and membership</text><rect x="830.0" y="290.0" width="230" height="84" rx="10" fill="white" stroke="#2563EB" stroke-width="2"/><text x="945.0" y="337.1" text-anchor="middle" font-family="Arial, 'Liberation Sans', Helvetica, sans-serif" font-size="14.5" font-weight="400" fill="#1E293B">Privacy preferences</text><rect x="830.0" y="420.0" width="230" height="84" rx="10" fill="white" stroke="#2563EB" stroke-width="2"/><text x="945.0" y="467.1" text-anchor="middle" font-family="Arial, 'Liberation Sans', Helvetica, sans-serif" font-size="14.5" font-weight="400" fill="#1E293B">Reports and decisions</text><rect x="1200" y="100" width="270" height="424" rx="12" fill="#F7F9FC" stroke="#D5DDE8" stroke-width="1.5"/><rect x="1200" y="100" width="270" height="40" rx="12" fill="#15253D"/><rect x="1200" y="120" width="270" height="20" fill="#15253D"/><text x="1335.0" y="125.2" text-anchor="middle" font-family="Arial, 'Liberation Sans', Helvetica, sans-serif" font-size="15" font-weight="700" fill="white">4. Partners and outputs</text><rect x="1220.0" y="225.0" width="230" height="84" rx="10" fill="white" stroke="#2563EB" stroke-width="2"/><text x="1335.0" y="272.1" text-anchor="middle" font-family="Arial, 'Liberation Sans', Helvetica, sans-serif" font-size="14.5" font-weight="400" fill="#1E293B">IndulgeTix checkout</text><rect x="1220.0" y="355.0" width="230" height="84" rx="10" fill="white" stroke="#2563EB" stroke-width="2"/><text x="1335.0" y="402.1" text-anchor="middle" font-family="Arial, 'Liberation Sans', Helvetica, sans-serif" font-size="14.5" font-weight="400" fill="#1E293B">Safety and adoption reporting</text><path d="M280.0,267.0 L440.0,267.0" fill="none" stroke="#475569" stroke-width="2" marker-end="url(#ah)"/><path d="M280.0,397.0 L440.0,397.0" fill="none" stroke="#475569" stroke-width="2" marker-end="url(#ah)"/><path d="M670.0,267.0 L720,267.0 L720,202.0 L830.0,202.0" fill="none" stroke="#475569" stroke-width="2" marker-end="url(#ah)"/><path d="M670.0,267.0 L750,267.0 L750,332.0 L830.0,332.0" fill="none" stroke="#475569" stroke-width="2" marker-end="url(#ah)"/><path d="M670.0,397.0 L780,397.0 L780,462.0 L830.0,462.0" fill="none" stroke="#475569" stroke-width="2" marker-end="url(#ah)"/><path d="M1060.0,202.0 L1110,202.0 L1110,267.0 L1220.0,267.0" fill="none" stroke="#475569" stroke-width="2" marker-end="url(#ah)"/><path d="M1060.0,462.0 L1140,462.0 L1140,397.0 L1220.0,397.0" fill="none" stroke="#475569" stroke-width="2" marker-end="url(#ah)"/><circle cx="360.0" cy="267.0" r="12" fill="#0F766E"/><text x="360.0" y="272.0" text-anchor="middle" font-family="Arial, 'Liberation Sans', Helvetica, sans-serif" font-size="13" font-weight="700" fill="white">1</text><circle cx="360.0" cy="397.0" r="12" fill="#0F766E"/><text x="360.0" y="402.0" text-anchor="middle" font-family="Arial, 'Liberation Sans', Helvetica, sans-serif" font-size="13" font-weight="700" fill="white">2</text><circle cx="720.0" cy="234.5" r="12" fill="#0F766E"/><text x="720.0" y="239.5" text-anchor="middle" font-family="Arial, 'Liberation Sans', Helvetica, sans-serif" font-size="13" font-weight="700" fill="white">3</text><circle cx="750.0" cy="299.5" r="12" fill="#0F766E"/><text x="750.0" y="304.5" text-anchor="middle" font-family="Arial, 'Liberation Sans', Helvetica, sans-serif" font-size="13" font-weight="700" fill="white">4</text><circle cx="780.0" cy="429.5" r="12" fill="#0F766E"/><text x="780.0" y="434.5" text-anchor="middle" font-family="Arial, 'Liberation Sans', Helvetica, sans-serif" font-size="13" font-weight="700" fill="white">5</text><circle cx="1110.0" cy="234.5" r="12" fill="#0F766E"/><text x="1110.0" y="239.5" text-anchor="middle" font-family="Arial, 'Liberation Sans', Helvetica, sans-serif" font-size="13" font-weight="700" fill="white">6</text><circle cx="1140.0" cy="429.5" r="12" fill="#0F766E"/><text x="1140.0" y="434.5" text-anchor="middle" font-family="Arial, 'Liberation Sans', Helvetica, sans-serif" font-size="13" font-weight="700" fill="white">7</text><text x="30" y="564" font-family="Arial, 'Liberation Sans', Helvetica, sans-serif" font-size="15" font-weight="700" fill="#15253D">Numbered flows</text><text x="30.0" y="586" font-family="Arial, 'Liberation Sans', Helvetica, sans-serif" font-size="14.5" fill="#1E293B">1. Area and interests</text><text x="30.0" y="610" font-family="Arial, 'Liberation Sans', Helvetica, sans-serif" font-size="14.5" fill="#1E293B">2. Verification evidence and reports</text><text x="30.0" y="634" font-family="Arial, 'Liberation Sans', Helvetica, sans-serif" font-size="14.5" fill="#1E293B">3. Group matches</text><text x="30.0" y="658" font-family="Arial, 'Liberation Sans', Helvetica, sans-serif" font-size="14.5" fill="#1E293B">4. Precision applied</text><text x="750.0" y="586" font-family="Arial, 'Liberation Sans', Helvetica, sans-serif" font-size="14.5" fill="#1E293B">5. Decision with owner</text><text x="750.0" y="610" font-family="Arial, 'Liberation Sans', Helvetica, sans-serif" font-size="14.5" fill="#1E293B">6. Published event link</text><text x="750.0" y="634" font-family="Arial, 'Liberation Sans', Helvetica, sans-serif" font-size="14.5" fill="#1E293B">7. Report volumes and outcomes</text></svg>