<svg xmlns="http://www.w3.org/2000/svg" width="2860" height="910" viewBox="0 0 2860 910"><defs><marker id="ah" markerWidth="12" markerHeight="12" refX="10" refY="6" orient="auto" markerUnits="userSpaceOnUse"><path d="M0,1 L10,6 L0,11 z" fill="#475569"/></marker></defs><rect width="2860" height="100%" fill="white"/><text x="30" y="46" font-family="Arial, 'Liberation Sans', Helvetica, sans-serif" font-size="26" font-weight="700" fill="#15253D">The Ecommerce Boss: To-Be process</text><text x="30" y="72" font-family="Arial, 'Liberation Sans', Helvetica, sans-serif" font-size="15" fill="#64748B">After the engagement, with every decision outcome labelled.</text><rect x="30" y="100" width="2800" height="180" fill="#FFFFFF" stroke="#D5DDE8" stroke-width="1.5"/><rect x="30" y="100" width="160" height="180" fill="#15253D" stroke="#D5DDE8" stroke-width="1.5"/><text x="110.0" y="195.6" text-anchor="middle" font-family="Arial, 'Liberation Sans', Helvetica, sans-serif" font-size="16" font-weight="700" fill="white">Customer</text><rect x="30" y="280" width="2800" height="180" fill="#F7F9FC" stroke="#D5DDE8" stroke-width="1.5"/><rect x="30" y="280" width="160" height="180" fill="#15253D" stroke="#D5DDE8" stroke-width="1.5"/><text x="110.0" y="365.6" text-anchor="middle" font-family="Arial, 'Liberation Sans', Helvetica, sans-serif" font-size="16" font-weight="700" fill="white">Website and</text><text x="110.0" y="385.6" text-anchor="middle" font-family="Arial, 'Liberation Sans', Helvetica, sans-serif" font-size="16" font-weight="700" fill="white">forms</text><rect x="30" y="460" width="2800" height="180" fill="#FFFFFF" stroke="#D5DDE8" stroke-width="1.5"/><rect x="30" y="460" width="160" height="180" fill="#15253D" stroke="#D5DDE8" stroke-width="1.5"/><text x="110.0" y="545.6" text-anchor="middle" font-family="Arial, 'Liberation Sans', Helvetica, sans-serif" font-size="16" font-weight="700" fill="white">Records and</text><text x="110.0" y="565.6" text-anchor="middle" font-family="Arial, 'Liberation Sans', Helvetica, sans-serif" font-size="16" font-weight="700" fill="white">automation</text><rect x="30" y="640" width="2800" height="180" fill="#F7F9FC" stroke="#D5DDE8" stroke-width="1.5"/><rect x="30" y="640" width="160" height="180" fill="#15253D" stroke="#D5DDE8" stroke-width="1.5"/><text x="110.0" y="735.6" text-anchor="middle" font-family="Arial, 'Liberation Sans', Helvetica, sans-serif" font-size="16" font-weight="700" fill="white">Business owner</text><path d="M300.0,190.0 L352.0,190.0 L352.0,370.0 L535.0,370.0" fill="none" stroke="#475569" stroke-width="2" marker-end="url(#ah)"/><path d="M705.0,370.0 L729.0,370.0 L729.0,550.0 L875.0,550.0" fill="none" stroke="#475569" stroke-width="2" marker-end="url(#ah)"/><path d="M1045.0,550.0 L1228.0,550.0" fill="none" stroke="#475569" stroke-width="2" marker-end="url(#ah)"/><path d="M1372.0,550.0 L1555.0,550.0" fill="none" stroke="#475569" stroke-width="2" marker-end="url(#ah)"/><text x="1380.0" y="541.0" font-family="Arial, 'Liberation Sans', Helvetica, sans-serif" font-size="13" font-weight="700" fill="#1E293B">Yes</text><path d="M1725.0,550.0 L1749.0,550.0 L1749.0,730.0 L1895.0,730.0" fill="none" stroke="#475569" stroke-width="2" marker-end="url(#ah)"/><path d="M2065.0,730.0 L2089.0,730.0 L2089.0,190.0 L2300.0,190.0" fill="none" stroke="#475569" stroke-width="2" marker-end="url(#ah)"/><path d="M1300.0,596.0 L1300.0,730.0 L1555.0,730.0" fill="none" stroke="#475569" stroke-width="2" marker-end="url(#ah)"/><text x="1308.0" y="614.0" font-family="Arial, 'Liberation Sans', Helvetica, sans-serif" font-size="13" font-weight="700" fill="#1E293B">No</text><path d="M2065.0,730.0 L2235.0,730.0" fill="none" stroke="#475569" stroke-width="2" marker-end="url(#ah)"/><path d="M2405.0,730.0 L2640.0,730.0" fill="none" stroke="#475569" stroke-width="2" marker-end="url(#ah)"/><circle cx="280" cy="190.0" r="18" fill="white" stroke="#16A34A" stroke-width="2.5"/><text x="280" y="232.2" text-anchor="middle" font-family="Arial, 'Liberation Sans', Helvetica, sans-serif" font-size="12" font-weight="700" fill="#1E293B">Search or social</text><rect x="535" y="338.0" width="170" height="64" rx="8" fill="#EEF4FF" stroke="#2563EB" stroke-width="2"/><text x="620" y="374.6" text-anchor="middle" font-family="Arial, 'Liberation Sans', Helvetica, sans-serif" font-size="13" font-weight="400" fill="#1E293B">Tracked enquiry form</text><rect x="875" y="518.0" width="170" height="64" rx="8" fill="#EEF4FF" stroke="#2563EB" stroke-width="2"/><text x="960" y="546.4" text-anchor="middle" font-family="Arial, 'Liberation Sans', Helvetica, sans-serif" font-size="13" font-weight="400" fill="#1E293B">Record created with</text><text x="960" y="562.7" text-anchor="middle" font-family="Arial, 'Liberation Sans', Helvetica, sans-serif" font-size="13" font-weight="400" fill="#1E293B">source and owner</text><path d="M1300,504.0 L1372,550.0 L1300,596.0 L1228,550.0 z" fill="#FFF7DB" stroke="#B45309" stroke-width="2"/><text x="1300" y="546.7" text-anchor="middle" font-family="Arial, 'Liberation Sans', Helvetica, sans-serif" font-size="12" font-weight="400" fill="#1E293B">Qualified</text><text x="1300" y="561.7" text-anchor="middle" font-family="Arial, 'Liberation Sans', Helvetica, sans-serif" font-size="12" font-weight="400" fill="#1E293B">lead?</text><rect x="1555" y="518.0" width="170" height="64" rx="8" fill="#EEF4FF" stroke="#2563EB" stroke-width="2"/><text x="1640" y="546.4" text-anchor="middle" font-family="Arial, 'Liberation Sans', Helvetica, sans-serif" font-size="13" font-weight="400" fill="#1E293B">Confirmation and</text><text x="1640" y="562.7" text-anchor="middle" font-family="Arial, 'Liberation Sans', Helvetica, sans-serif" font-size="13" font-weight="400" fill="#1E293B">follow-up sent</text><rect x="1895" y="698.0" width="170" height="64" rx="8" fill="#EEF4FF" stroke="#2563EB" stroke-width="2"/><text x="1980" y="726.4" text-anchor="middle" font-family="Arial, 'Liberation Sans', Helvetica, sans-serif" font-size="13" font-weight="400" fill="#1E293B">Owner converts and</text><text x="1980" y="742.7" text-anchor="middle" font-family="Arial, 'Liberation Sans', Helvetica, sans-serif" font-size="13" font-weight="400" fill="#1E293B">records the sale</text><circle cx="2320" cy="190.0" r="18" fill="white" stroke="#B91C1C" stroke-width="4"/><text x="2320" y="232.2" text-anchor="middle" font-family="Arial, 'Liberation Sans', Helvetica, sans-serif" font-size="12" font-weight="700" fill="#1E293B">Customer served</text><rect x="1555" y="698.0" width="170" height="64" rx="8" fill="#EEF4FF" stroke="#2563EB" stroke-width="2"/><text x="1640" y="734.5" text-anchor="middle" font-family="Arial, 'Liberation Sans', Helvetica, sans-serif" font-size="13" font-weight="400" fill="#1E293B">Added to nurture list</text><rect x="2235" y="698.0" width="170" height="64" rx="8" fill="#EEF4FF" stroke="#2563EB" stroke-width="2"/><text x="2320" y="726.4" text-anchor="middle" font-family="Arial, 'Liberation Sans', Helvetica, sans-serif" font-size="13" font-weight="400" fill="#1E293B">Dashboard shows source</text><text x="2320" y="742.7" text-anchor="middle" font-family="Arial, 'Liberation Sans', Helvetica, sans-serif" font-size="13" font-weight="400" fill="#1E293B">to sale</text><circle cx="2660" cy="730.0" r="18" fill="white" stroke="#B91C1C" stroke-width="4"/><text x="2660" y="772.2" text-anchor="middle" font-family="Arial, 'Liberation Sans', Helvetica, sans-serif" font-size="12" font-weight="700" fill="#1E293B">Budget on evidence</text><circle cx="40" cy="870" r="10" fill="white" stroke="#16A34A" stroke-width="2.5"/><text x="62" y="875" font-family="Arial, 'Liberation Sans', Helvetica, sans-serif" font-size="13" fill="#1E293B">Start event</text><rect x="192" y="860" width="24" height="20" rx="4" fill="#EEF4FF" stroke="#2563EB" stroke-width="2"/><text x="226" y="875" font-family="Arial, 'Liberation Sans', Helvetica, sans-serif" font-size="13" fill="#1E293B">Activity</text><path d="M344,858 L356,870 L344,882 L332,870 z" fill="#FFF7DB" stroke="#B45309" stroke-width="2"/><text x="366" y="875" font-family="Arial, 'Liberation Sans', Helvetica, sans-serif" font-size="13" fill="#1E293B">Decision</text><circle cx="484" cy="870" r="10" fill="white" stroke="#B91C1C" stroke-width="3.5"/><text x="506" y="875" font-family="Arial, 'Liberation Sans', Helvetica, sans-serif" font-size="13" fill="#1E293B">End event</text></svg>