<svg xmlns="http://www.w3.org/2000/svg" width="2200" height="904" viewBox="0 0 2200 904"><defs><marker id="ah" markerWidth="12" markerHeight="12" refX="10" refY="6" orient="auto" markerUnits="userSpaceOnUse"><path d="M0,1 L10,6 L0,11 z" fill="#475569"/></marker></defs><rect width="2200" height="100%" fill="white"/><text x="30" y="46" font-family="Arial, 'Liberation Sans', Helvetica, sans-serif" font-size="26" font-weight="700" fill="#15253D">BOZ Jewelry: As-Is process</text><text x="30" y="72" font-family="Arial, 'Liberation Sans', Helvetica, sans-serif" font-size="15" fill="#64748B">Current state before the redesign. Orange activities are the pain points found in discovery.</text><rect x="30" y="100" width="2140" height="186" fill="#FFFFFF" stroke="#D5DDE8" stroke-width="1.5"/><rect x="30" y="100" width="160" height="186" fill="#15253D" stroke="#D5DDE8" stroke-width="1.5"/><text x="110.0" y="198.6" text-anchor="middle" font-family="Arial, 'Liberation Sans', Helvetica, sans-serif" font-size="16" font-weight="700" fill="white">Customer</text><rect x="30" y="286" width="2140" height="186" fill="#F7F9FC" stroke="#D5DDE8" stroke-width="1.5"/><rect x="30" y="286" width="160" height="186" fill="#15253D" stroke="#D5DDE8" stroke-width="1.5"/><text x="110.0" y="384.6" text-anchor="middle" font-family="Arial, 'Liberation Sans', Helvetica, sans-serif" font-size="16" font-weight="700" fill="white">Customer service</text><rect x="30" y="472" width="2140" height="170" fill="#FFFFFF" stroke="#D5DDE8" stroke-width="1.5"/><rect x="30" y="472" width="160" height="170" fill="#15253D" stroke="#D5DDE8" stroke-width="1.5"/><text x="110.0" y="562.6" text-anchor="middle" font-family="Arial, 'Liberation Sans', Helvetica, sans-serif" font-size="16" font-weight="700" fill="white">Production</text><rect x="30" y="642" width="2140" height="172" fill="#F7F9FC" stroke="#D5DDE8" stroke-width="1.5"/><rect x="30" y="642" width="160" height="172" fill="#15253D" stroke="#D5DDE8" stroke-width="1.5"/><text x="110.0" y="733.6" text-anchor="middle" font-family="Arial, 'Liberation Sans', Helvetica, sans-serif" font-size="16" font-weight="700" fill="white">Leadership</text><path d="M320.0,193.0 L434.0,193.0" fill="none" stroke="#475569" stroke-width="2" marker-end="url(#ah)"/><path d="M606.0,193.0 L630.0,193.0 L630.0,379.0 L654.0,379.0" fill="none" stroke="#475569" stroke-width="2" marker-end="url(#ah)"/><path d="M826.0,379.0 L879.2,379.0" fill="none" stroke="#475569" stroke-width="2" marker-end="url(#ah)"/><path d="M1040.8,379.0 L1070.0,379.0 L1070.0,557.0 L1094.0,557.0" fill="none" stroke="#475569" stroke-width="2" marker-end="url(#ah)"/><path d="M960.0,426.0 L960.0,456.0 L740.0,456.0 L740.0,410.0" fill="none" stroke="#475569" stroke-width="2" marker-end="url(#ah)"/><path d="M1266.0,557.0 L1290.0,557.0 L1290.0,193.0 L1316.7,193.0" fill="none" stroke="#475569" stroke-width="2" marker-end="url(#ah)"/><path d="M1483.3,193.0 L1600.0,193.0" fill="none" stroke="#475569" stroke-width="2" marker-end="url(#ah)"/><path d="M1400.0,240.0 L1400.0,379.0 L1534.0,379.0" fill="none" stroke="#475569" stroke-width="2" marker-end="url(#ah)"/><path d="M1620.0,410.0 L1620.0,488.0 L1180.0,488.0 L1180.0,526.0" fill="none" stroke="#475569" stroke-width="2" marker-end="url(#ah)"/><path d="M1706.0,379.0 L1730.0,379.0 L1730.0,728.0 L1754.0,728.0" fill="none" stroke="#475569" stroke-width="2" marker-end="url(#ah)"/><path d="M1926.0,728.0 L2040.0,728.0" fill="none" stroke="#475569" stroke-width="2" marker-end="url(#ah)"/><circle cx="300.0" cy="193.0" r="18" fill="white" stroke="#16A34A" stroke-width="2.5"/><text x="300.0" y="235.4" text-anchor="middle" font-family="Arial, 'Liberation Sans', Helvetica, sans-serif" font-size="12.5" font-weight="700" fill="#1E293B">Enquiry</text><rect x="434.0" y="162.0" width="172" height="62" rx="10" fill="#EEF4FF" stroke="#2563EB" stroke-width="2"/><text x="520.0" y="188.9" text-anchor="middle" font-family="Arial, 'Liberation Sans', Helvetica, sans-serif" font-size="14" font-weight="400" fill="#1E293B">Ask product or</text><text x="520.0" y="206.9" text-anchor="middle" font-family="Arial, 'Liberation Sans', Helvetica, sans-serif" font-size="14" font-weight="400" fill="#1E293B">custom-order question</text><rect x="654.0" y="348.0" width="172" height="62" rx="10" fill="#FFF4E8" stroke="#EA580C" stroke-width="2"/><text x="740.0" y="374.9" text-anchor="middle" font-family="Arial, 'Liberation Sans', Helvetica, sans-serif" font-size="14" font-weight="400" fill="#1E293B">Respond manually in</text><text x="740.0" y="392.9" text-anchor="middle" font-family="Arial, 'Liberation Sans', Helvetica, sans-serif" font-size="14" font-weight="400" fill="#1E293B">WhatsApp queue</text><circle cx="824.0" cy="350.0" r="10" fill="#EA580C"/><text x="824.0" y="355.0" text-anchor="middle" font-family="Arial, 'Liberation Sans', Helvetica, sans-serif" font-size="14" font-weight="700" fill="white">!</text><polygon points="960.0,332.0 1040.8,379.0 960.0,426.0 879.2,379.0" fill="#FFF8DB" stroke="#B45309" stroke-width="2"/><text x="960.0" y="375.6" text-anchor="middle" font-family="Arial, 'Liberation Sans', Helvetica, sans-serif" font-size="13" font-weight="400" fill="#1E293B">Request fully</text><text x="960.0" y="391.6" text-anchor="middle" font-family="Arial, 'Liberation Sans', Helvetica, sans-serif" font-size="13" font-weight="400" fill="#1E293B">understood?</text><rect x="1094.0" y="526.0" width="172" height="62" rx="10" fill="#FFF4E8" stroke="#EA580C" stroke-width="2"/><text x="1180.0" y="552.9" text-anchor="middle" font-family="Arial, 'Liberation Sans', Helvetica, sans-serif" font-size="14" font-weight="400" fill="#1E293B">Produce from</text><text x="1180.0" y="570.9" text-anchor="middle" font-family="Arial, 'Liberation Sans', Helvetica, sans-serif" font-size="14" font-weight="400" fill="#1E293B">interpreted details</text><circle cx="1264.0" cy="528.0" r="10" fill="#EA580C"/><text x="1264.0" y="533.0" text-anchor="middle" font-family="Arial, 'Liberation Sans', Helvetica, sans-serif" font-size="14" font-weight="700" fill="white">!</text><polygon points="1400.0,146.0 1483.3,193.0 1400.0,240.0 1316.7,193.0" fill="#FFF8DB" stroke="#B45309" stroke-width="2"/><text x="1400.0" y="189.6" text-anchor="middle" font-family="Arial, 'Liberation Sans', Helvetica, sans-serif" font-size="13" font-weight="400" fill="#1E293B">Item matches</text><text x="1400.0" y="205.6" text-anchor="middle" font-family="Arial, 'Liberation Sans', Helvetica, sans-serif" font-size="13" font-weight="400" fill="#1E293B">expectation?</text><circle cx="1620.0" cy="193.0" r="18" fill="white" stroke="#B91C1C" stroke-width="5"/><text x="1620.0" y="235.4" text-anchor="middle" font-family="Arial, 'Liberation Sans', Helvetica, sans-serif" font-size="12.5" font-weight="700" fill="#1E293B">Order closed</text><rect x="1534.0" y="348.0" width="172" height="62" rx="10" fill="#FFF4E8" stroke="#EA580C" stroke-width="2"/><text x="1620.0" y="374.9" text-anchor="middle" font-family="Arial, 'Liberation Sans', Helvetica, sans-serif" font-size="14" font-weight="400" fill="#1E293B">Handle complaint or</text><text x="1620.0" y="392.9" text-anchor="middle" font-family="Arial, 'Liberation Sans', Helvetica, sans-serif" font-size="14" font-weight="400" fill="#1E293B">rework</text><circle cx="1704.0" cy="350.0" r="10" fill="#EA580C"/><text x="1704.0" y="355.0" text-anchor="middle" font-family="Arial, 'Liberation Sans', Helvetica, sans-serif" font-size="14" font-weight="700" fill="white">!</text><rect x="1754.0" y="688.0" width="172" height="80" rx="10" fill="#FFF4E8" stroke="#EA580C" stroke-width="2"/><text x="1840.0" y="714.9" text-anchor="middle" font-family="Arial, 'Liberation Sans', Helvetica, sans-serif" font-size="14" font-weight="400" fill="#1E293B">Chase progress</text><text x="1840.0" y="732.9" text-anchor="middle" font-family="Arial, 'Liberation Sans', Helvetica, sans-serif" font-size="14" font-weight="400" fill="#1E293B">updates across</text><text x="1840.0" y="750.9" text-anchor="middle" font-family="Arial, 'Liberation Sans', Helvetica, sans-serif" font-size="14" font-weight="400" fill="#1E293B">channels</text><circle cx="1924.0" cy="690.0" r="10" fill="#EA580C"/><text x="1924.0" y="695.0" text-anchor="middle" font-family="Arial, 'Liberation Sans', Helvetica, sans-serif" font-size="14" font-weight="700" fill="white">!</text><circle cx="2060.0" cy="728.0" r="18" fill="white" stroke="#B91C1C" stroke-width="5"/><text x="2060.0" y="770.4" text-anchor="middle" font-family="Arial, 'Liberation Sans', Helvetica, sans-serif" font-size="12.5" font-weight="700" fill="#1E293B">Status still unclear</text><rect x="1045.8" y="359.0" width="27.6" height="16" fill="white" opacity="0.92"/><text x="1048.8" y="371.0" text-anchor="start" font-family="Arial, 'Liberation Sans', Helvetica, sans-serif" font-size="12.5" font-weight="700" fill="#334155">Yes</text><rect x="964.0" y="432.0" width="66.4" height="16" fill="white" opacity="0.92"/><text x="967.0" y="444.0" text-anchor="start" font-family="Arial, 'Liberation Sans', Helvetica, sans-serif" font-size="12.5" font-weight="700" fill="#334155">No, clarify</text><rect x="1488.3" y="173.0" width="27.6" height="16" fill="white" opacity="0.92"/><text x="1491.3" y="185.0" text-anchor="start" font-family="Arial, 'Liberation Sans', Helvetica, sans-serif" font-size="12.5" font-weight="700" fill="#334155">Yes</text><rect x="1404.0" y="246.0" width="22.7" height="16" fill="white" opacity="0.92"/><text x="1407.0" y="258.0" text-anchor="start" font-family="Arial, 'Liberation Sans', Helvetica, sans-serif" font-size="12.5" font-weight="700" fill="#334155">No</text><rect x="1624.0" y="416.0" width="51.2" height="16" fill="white" opacity="0.92"/><text x="1627.0" y="428.0" text-anchor="start" font-family="Arial, 'Liberation Sans', Helvetica, sans-serif" font-size="12.5" font-weight="700" fill="#334155">Rework</text><rect x="1711.0" y="359.0" width="56.7" height="16" fill="white" opacity="0.92"/><text x="1714.0" y="371.0" text-anchor="start" font-family="Arial, 'Liberation Sans', Helvetica, sans-serif" font-size="12.5" font-weight="700" fill="#334155">Escalate</text><circle cx="42" cy="859" r="10" fill="white" stroke="#16A34A" stroke-width="2.5"/><text x="64" y="864" font-family="Arial, 'Liberation Sans', Helvetica, sans-serif" font-size="14" fill="#1E293B">Start event</text><rect x="161.6875" y="848" width="26" height="22" rx="5" fill="#EEF4FF" stroke="#2563EB" stroke-width="2"/><text x="195.6875" y="864" font-family="Arial, 'Liberation Sans', Helvetica, sans-serif" font-size="14" fill="#1E293B">Activity</text><rect x="270.03125" y="848" width="26" height="22" rx="5" fill="#FFF4E8" stroke="#EA580C" stroke-width="2"/><text x="304.03125" y="864" font-family="Arial, 'Liberation Sans', Helvetica, sans-serif" font-size="14" fill="#1E293B">Pain point</text><polygon points="409.28125,847 422.28125,859 409.28125,871 396.28125,859" fill="#FFF8DB" stroke="#B45309" stroke-width="2"/><text x="430.28125" y="864" font-family="Arial, 'Liberation Sans', Helvetica, sans-serif" font-size="14" fill="#1E293B">Decision</text><circle cx="525.953125" cy="859" r="10" fill="white" stroke="#B91C1C" stroke-width="4"/><text x="547.953125" y="864" font-family="Arial, 'Liberation Sans', Helvetica, sans-serif" font-size="14" fill="#1E293B">End event</text></svg>