<svg xmlns="http://www.w3.org/2000/svg" width="1500" height="726" viewBox="0 0 1500 726"><defs><marker id="ah" markerWidth="12" markerHeight="12" refX="10" refY="6" orient="auto" markerUnits="userSpaceOnUse"><path d="M0,1 L10,6 L0,11 z" fill="#475569"/></marker></defs><rect width="1500" height="100%" fill="white"/><text x="30" y="46" font-family="Arial, 'Liberation Sans', Helvetica, sans-serif" font-size="26" font-weight="700" fill="#15253D">IndulgeTix: Solution overview</text><text x="30" y="72" font-family="Arial, 'Liberation Sans', Helvetica, sans-serif" font-size="15" fill="#64748B">Left to right: channels, processing, records and outputs. Numbers match the flow list below.</text><rect x="30" y="100" width="270" height="424" rx="12" fill="#F7F9FC" stroke="#D5DDE8" stroke-width="1.5"/><rect x="30" y="100" width="270" height="40" rx="12" fill="#15253D"/><rect x="30" y="120" width="270" height="20" fill="#15253D"/><text x="165.0" y="125.2" text-anchor="middle" font-family="Arial, 'Liberation Sans', Helvetica, sans-serif" font-size="15" font-weight="700" fill="white">1. Channels</text><rect x="50.0" y="160.0" width="230" height="84" rx="10" fill="white" stroke="#2563EB" stroke-width="2"/><text x="165.0" y="207.1" text-anchor="middle" font-family="Arial, 'Liberation Sans', Helvetica, sans-serif" font-size="14.5" font-weight="400" fill="#1E293B">Organiser web app</text><rect x="50.0" y="290.0" width="230" height="84" rx="10" fill="white" stroke="#2563EB" stroke-width="2"/><text x="165.0" y="337.1" text-anchor="middle" font-family="Arial, 'Liberation Sans', Helvetica, sans-serif" font-size="14.5" font-weight="400" fill="#1E293B">Attendee app and checkout</text><rect x="50.0" y="420.0" width="230" height="84" rx="10" fill="white" stroke="#2563EB" stroke-width="2"/><text x="165.0" y="467.1" text-anchor="middle" font-family="Arial, 'Liberation Sans', Helvetica, sans-serif" font-size="14.5" font-weight="400" fill="#1E293B">Door scanner app</text><rect x="420" y="100" width="270" height="424" rx="12" fill="#F7F9FC" stroke="#D5DDE8" stroke-width="1.5"/><rect x="420" y="100" width="270" height="40" rx="12" fill="#15253D"/><rect x="420" y="120" width="270" height="20" fill="#15253D"/><text x="555.0" y="125.2" text-anchor="middle" font-family="Arial, 'Liberation Sans', Helvetica, sans-serif" font-size="15" font-weight="700" fill="white">2. Services</text><rect x="440.0" y="160.0" width="230" height="84" rx="10" fill="white" stroke="#2563EB" stroke-width="2"/><text x="555.0" y="207.1" text-anchor="middle" font-family="Arial, 'Liberation Sans', Helvetica, sans-serif" font-size="14.5" font-weight="400" fill="#1E293B">Event and ticket catalogue</text><rect x="440.0" y="290.0" width="230" height="84" rx="10" fill="white" stroke="#2563EB" stroke-width="2"/><text x="555.0" y="328.1" text-anchor="middle" font-family="Arial, 'Liberation Sans', Helvetica, sans-serif" font-size="14.5" font-weight="400" fill="#1E293B">Ticket ownership and state</text><text x="555.0" y="346.1" text-anchor="middle" font-family="Arial, 'Liberation Sans', Helvetica, sans-serif" font-size="14.5" font-weight="400" fill="#1E293B">service</text><rect x="440.0" y="420.0" width="230" height="84" rx="10" fill="white" stroke="#2563EB" stroke-width="2"/><text x="555.0" y="467.1" text-anchor="middle" font-family="Arial, 'Liberation Sans', Helvetica, sans-serif" font-size="14.5" font-weight="400" fill="#1E293B">Scan validation service</text><rect x="810" y="100" width="270" height="424" rx="12" fill="#F7F9FC" stroke="#D5DDE8" stroke-width="1.5"/><rect x="810" y="100" width="270" height="40" rx="12" fill="#15253D"/><rect x="810" y="120" width="270" height="20" fill="#15253D"/><text x="945.0" y="125.2" text-anchor="middle" font-family="Arial, 'Liberation Sans', Helvetica, sans-serif" font-size="15" font-weight="700" fill="white">3. Records</text><rect x="830.0" y="225.0" width="230" height="84" rx="10" fill="white" stroke="#2563EB" stroke-width="2"/><text x="945.0" y="272.1" text-anchor="middle" font-family="Arial, 'Liberation Sans', Helvetica, sans-serif" font-size="14.5" font-weight="400" fill="#1E293B">Ticket ledger with audit history</text><rect x="830.0" y="355.0" width="230" height="84" rx="10" fill="white" stroke="#2563EB" stroke-width="2"/><text x="945.0" y="402.1" text-anchor="middle" font-family="Arial, 'Liberation Sans', Helvetica, sans-serif" font-size="14.5" font-weight="400" fill="#1E293B">Payments and refunds record</text><rect x="1200" y="100" width="270" height="424" rx="12" fill="#F7F9FC" stroke="#D5DDE8" stroke-width="1.5"/><rect x="1200" y="100" width="270" height="40" rx="12" fill="#15253D"/><rect x="1200" y="120" width="270" height="20" fill="#15253D"/><text x="1335.0" y="125.2" text-anchor="middle" font-family="Arial, 'Liberation Sans', Helvetica, sans-serif" font-size="15" font-weight="700" fill="white">4. Outputs and partners</text><rect x="1220.0" y="225.0" width="230" height="84" rx="10" fill="white" stroke="#2563EB" stroke-width="2"/><text x="1335.0" y="272.1" text-anchor="middle" font-family="Arial, 'Liberation Sans', Helvetica, sans-serif" font-size="14.5" font-weight="400" fill="#1E293B">Payment provider</text><rect x="1220.0" y="355.0" width="230" height="84" rx="10" fill="white" stroke="#2563EB" stroke-width="2"/><text x="1335.0" y="402.1" text-anchor="middle" font-family="Arial, 'Liberation Sans', Helvetica, sans-serif" font-size="14.5" font-weight="400" fill="#1E293B">Settlement and payout report</text><path d="M280.0,202.0 L440.0,202.0" fill="none" stroke="#475569" stroke-width="2" marker-end="url(#ah)"/><path d="M280.0,332.0 L440.0,332.0" fill="none" stroke="#475569" stroke-width="2" marker-end="url(#ah)"/><path d="M280.0,462.0 L440.0,462.0" fill="none" stroke="#475569" stroke-width="2" marker-end="url(#ah)"/><path d="M670.0,332.0 L720,332.0 L720,267.0 L830.0,267.0" fill="none" stroke="#475569" stroke-width="2" marker-end="url(#ah)"/><path d="M670.0,462.0 L750,462.0 L750,267.0 L830.0,267.0" fill="none" stroke="#475569" stroke-width="2" marker-end="url(#ah)"/><path d="M670.0,202.0 L780,202.0 L780,397.0 L830.0,397.0" fill="none" stroke="#475569" stroke-width="2" marker-end="url(#ah)"/><path d="M1060.0,397.0 L1110,397.0 L1110,267.0 L1220.0,267.0" fill="none" stroke="#475569" stroke-width="2" marker-end="url(#ah)"/><path d="M1060.0,267.0 L1140,267.0 L1140,397.0 L1220.0,397.0" fill="none" stroke="#475569" stroke-width="2" marker-end="url(#ah)"/><path d="M1060.0,397.0 L1220.0,397.0" fill="none" stroke="#475569" stroke-width="2" marker-end="url(#ah)"/><circle cx="360.0" cy="202.0" r="12" fill="#0F766E"/><text x="360.0" y="207.0" text-anchor="middle" font-family="Arial, 'Liberation Sans', Helvetica, sans-serif" font-size="13" font-weight="700" fill="white">1</text><circle cx="360.0" cy="332.0" r="12" fill="#0F766E"/><text x="360.0" y="337.0" text-anchor="middle" font-family="Arial, 'Liberation Sans', Helvetica, sans-serif" font-size="13" font-weight="700" fill="white">2</text><circle cx="360.0" cy="462.0" r="12" fill="#0F766E"/><text x="360.0" y="467.0" text-anchor="middle" font-family="Arial, 'Liberation Sans', Helvetica, sans-serif" font-size="13" font-weight="700" fill="white">3</text><circle cx="720.0" cy="299.5" r="12" fill="#0F766E"/><text x="720.0" y="304.5" text-anchor="middle" font-family="Arial, 'Liberation Sans', Helvetica, sans-serif" font-size="13" font-weight="700" fill="white">4</text><circle cx="750.0" cy="364.5" r="12" fill="#0F766E"/><text x="750.0" y="369.5" text-anchor="middle" font-family="Arial, 'Liberation Sans', Helvetica, sans-serif" font-size="13" font-weight="700" fill="white">5</text><circle cx="780.0" cy="299.5" r="12" fill="#0F766E"/><text x="780.0" y="304.5" text-anchor="middle" font-family="Arial, 'Liberation Sans', Helvetica, sans-serif" font-size="13" font-weight="700" fill="white">6</text><circle cx="1110.0" cy="332.0" r="12" fill="#0F766E"/><text x="1110.0" y="337.0" text-anchor="middle" font-family="Arial, 'Liberation Sans', Helvetica, sans-serif" font-size="13" font-weight="700" fill="white">7</text><circle cx="1140.0" cy="332.0" r="12" fill="#0F766E"/><text x="1140.0" y="337.0" text-anchor="middle" font-family="Arial, 'Liberation Sans', Helvetica, sans-serif" font-size="13" font-weight="700" fill="white">8</text><circle cx="1140.0" cy="397.0" r="12" fill="#0F766E"/><text x="1140.0" y="402.0" text-anchor="middle" font-family="Arial, 'Liberation Sans', Helvetica, sans-serif" font-size="13" font-weight="700" fill="white">9</text><text x="30" y="564" font-family="Arial, 'Liberation Sans', Helvetica, sans-serif" font-size="15" font-weight="700" fill="#15253D">Numbered flows</text><text x="30.0" y="586" font-family="Arial, 'Liberation Sans', Helvetica, sans-serif" font-size="14.5" fill="#1E293B">1. Event and tiers configured</text><text x="30.0" y="610" font-family="Arial, 'Liberation Sans', Helvetica, sans-serif" font-size="14.5" fill="#1E293B">2. Purchase, transfer, refund requests</text><text x="30.0" y="634" font-family="Arial, 'Liberation Sans', Helvetica, sans-serif" font-size="14.5" fill="#1E293B">3. Ticket code scanned</text><text x="30.0" y="658" font-family="Arial, 'Liberation Sans', Helvetica, sans-serif" font-size="14.5" fill="#1E293B">4. State change with who, when, why</text><text x="30.0" y="682" font-family="Arial, 'Liberation Sans', Helvetica, sans-serif" font-size="14.5" fill="#1E293B">5. Scan result recorded</text><text x="750.0" y="586" font-family="Arial, 'Liberation Sans', Helvetica, sans-serif" font-size="14.5" fill="#1E293B">6. Order totals</text><text x="750.0" y="610" font-family="Arial, 'Liberation Sans', Helvetica, sans-serif" font-size="14.5" fill="#1E293B">7. Charge and refund instructions</text><text x="750.0" y="634" font-family="Arial, 'Liberation Sans', Helvetica, sans-serif" font-size="14.5" fill="#1E293B">8. Issued, refunded, scanned counts</text><text x="750.0" y="658" font-family="Arial, 'Liberation Sans', Helvetica, sans-serif" font-size="14.5" fill="#1E293B">9. Fees and money movements</text></svg>