<svg xmlns="http://www.w3.org/2000/svg" width="1980" height="716" viewBox="0 0 1980 716"><defs><marker id="ah" markerWidth="12" markerHeight="12" refX="10" refY="6" orient="auto" markerUnits="userSpaceOnUse"><path d="M0,1 L10,6 L0,11 z" fill="#475569"/></marker></defs><rect width="1980" height="100%" fill="white"/><text x="30" y="46" font-family="Arial, 'Liberation Sans', Helvetica, sans-serif" font-size="26" font-weight="700" fill="#15253D">NaijaFoodFestival: As-Is process</text><text x="30" y="72" font-family="Arial, 'Liberation Sans', Helvetica, sans-serif" font-size="15" fill="#64748B">Current state before the redesign. Orange activities are the pain points found in discovery.</text><rect x="30" y="100" width="1920" height="170" fill="#FFFFFF" stroke="#D5DDE8" stroke-width="1.5"/><rect x="30" y="100" width="160" height="170" fill="#15253D" stroke="#D5DDE8" stroke-width="1.5"/><text x="110.0" y="190.6" text-anchor="middle" font-family="Arial, 'Liberation Sans', Helvetica, sans-serif" font-size="16" font-weight="700" fill="white">Applicant</text><rect x="30" y="270" width="1920" height="186" fill="#F7F9FC" stroke="#D5DDE8" stroke-width="1.5"/><rect x="30" y="270" width="160" height="186" fill="#15253D" stroke="#D5DDE8" stroke-width="1.5"/><text x="110.0" y="368.6" text-anchor="middle" font-family="Arial, 'Liberation Sans', Helvetica, sans-serif" font-size="16" font-weight="700" fill="white">Organiser</text><rect x="30" y="456" width="1920" height="170" fill="#FFFFFF" stroke="#D5DDE8" stroke-width="1.5"/><rect x="30" y="456" width="160" height="170" fill="#15253D" stroke="#D5DDE8" stroke-width="1.5"/><text x="110.0" y="536.6" text-anchor="middle" font-family="Arial, 'Liberation Sans', Helvetica, sans-serif" font-size="16" font-weight="700" fill="white">Spreadsheet and</text><text x="110.0" y="556.6" text-anchor="middle" font-family="Arial, 'Liberation Sans', Helvetica, sans-serif" font-size="16" font-weight="700" fill="white">email</text><path d="M320.0,185.0 L434.0,185.0" fill="none" stroke="#475569" stroke-width="2" marker-end="url(#ah)"/><path d="M606.0,185.0 L630.0,185.0 L630.0,363.0 L654.0,363.0" fill="none" stroke="#475569" stroke-width="2" marker-end="url(#ah)"/><path d="M826.0,363.0 L873.5,363.0" fill="none" stroke="#475569" stroke-width="2" marker-end="url(#ah)"/><path d="M960.0,316.0 L960.0,216.0" fill="none" stroke="#475569" stroke-width="2" marker-end="url(#ah)"/><path d="M874.0,185.0 L740.0,185.0 L740.0,332.0" fill="none" stroke="#475569" stroke-width="2" marker-end="url(#ah)"/><path d="M1046.5,363.0 L1094.0,363.0" fill="none" stroke="#475569" stroke-width="2" marker-end="url(#ah)"/><path d="M1266.0,363.0 L1290.0,363.0 L1290.0,541.0 L1314.0,541.0" fill="none" stroke="#475569" stroke-width="2" marker-end="url(#ah)"/><path d="M1486.0,541.0 L1510.0,541.0 L1510.0,185.0 L1534.0,185.0" fill="none" stroke="#475569" stroke-width="2" marker-end="url(#ah)"/><path d="M1706.0,185.0 L1820.0,185.0" fill="none" stroke="#475569" stroke-width="2" marker-end="url(#ah)"/><circle cx="300.0" cy="185.0" r="18" fill="white" stroke="#16A34A" stroke-width="2.5"/><text x="300.0" y="227.4" text-anchor="middle" font-family="Arial, 'Liberation Sans', Helvetica, sans-serif" font-size="12.5" font-weight="700" fill="#1E293B">Enquiry</text><rect x="434.0" y="154.0" width="172" height="62" rx="10" fill="#EEF4FF" stroke="#2563EB" stroke-width="2"/><text x="520.0" y="180.9" text-anchor="middle" font-family="Arial, 'Liberation Sans', Helvetica, sans-serif" font-size="14" font-weight="400" fill="#1E293B">Send generic enquiry or</text><text x="520.0" y="198.9" text-anchor="middle" font-family="Arial, 'Liberation Sans', Helvetica, sans-serif" font-size="14" font-weight="400" fill="#1E293B">form</text><rect x="654.0" y="332.0" width="172" height="62" rx="10" fill="#FFF4E8" stroke="#EA580C" stroke-width="2"/><text x="740.0" y="358.9" text-anchor="middle" font-family="Arial, 'Liberation Sans', Helvetica, sans-serif" font-size="14" font-weight="400" fill="#1E293B">Copy record into</text><text x="740.0" y="376.9" text-anchor="middle" font-family="Arial, 'Liberation Sans', Helvetica, sans-serif" font-size="14" font-weight="400" fill="#1E293B">spreadsheet manually</text><circle cx="824.0" cy="334.0" r="10" fill="#EA580C"/><text x="824.0" y="339.0" text-anchor="middle" font-family="Arial, 'Liberation Sans', Helvetica, sans-serif" font-size="14" font-weight="700" fill="white">!</text><polygon points="960.0,316.0 1046.5,363.0 960.0,410.0 873.5,363.0" fill="#FFF8DB" stroke="#B45309" stroke-width="2"/><text x="960.0" y="359.6" text-anchor="middle" font-family="Arial, 'Liberation Sans', Helvetica, sans-serif" font-size="13" font-weight="400" fill="#1E293B">Applicant type</text><text x="960.0" y="375.6" text-anchor="middle" font-family="Arial, 'Liberation Sans', Helvetica, sans-serif" font-size="13" font-weight="400" fill="#1E293B">clear?</text><rect x="874.0" y="154.0" width="172" height="62" rx="10" fill="#EEF4FF" stroke="#2563EB" stroke-width="2"/><text x="960.0" y="180.9" text-anchor="middle" font-family="Arial, 'Liberation Sans', Helvetica, sans-serif" font-size="14" font-weight="400" fill="#1E293B">Resend missing</text><text x="960.0" y="198.9" text-anchor="middle" font-family="Arial, 'Liberation Sans', Helvetica, sans-serif" font-size="14" font-weight="400" fill="#1E293B">information</text><rect x="1094.0" y="332.0" width="172" height="62" rx="10" fill="#FFF4E8" stroke="#EA580C" stroke-width="2"/><text x="1180.0" y="358.9" text-anchor="middle" font-family="Arial, 'Liberation Sans', Helvetica, sans-serif" font-size="14" font-weight="400" fill="#1E293B">Reply by individual</text><text x="1180.0" y="376.9" text-anchor="middle" font-family="Arial, 'Liberation Sans', Helvetica, sans-serif" font-size="14" font-weight="400" fill="#1E293B">email</text><circle cx="1264.0" cy="334.0" r="10" fill="#EA580C"/><text x="1264.0" y="339.0" text-anchor="middle" font-family="Arial, 'Liberation Sans', Helvetica, sans-serif" font-size="14" font-weight="700" fill="white">!</text><rect x="1314.0" y="510.0" width="172" height="62" rx="10" fill="#FFF4E8" stroke="#EA580C" stroke-width="2"/><text x="1400.0" y="536.9" text-anchor="middle" font-family="Arial, 'Liberation Sans', Helvetica, sans-serif" font-size="14" font-weight="400" fill="#1E293B">Update status</text><text x="1400.0" y="554.9" text-anchor="middle" font-family="Arial, 'Liberation Sans', Helvetica, sans-serif" font-size="14" font-weight="400" fill="#1E293B">separately</text><circle cx="1484.0" cy="512.0" r="10" fill="#EA580C"/><text x="1484.0" y="517.0" text-anchor="middle" font-family="Arial, 'Liberation Sans', Helvetica, sans-serif" font-size="14" font-weight="700" fill="white">!</text><rect x="1534.0" y="154.0" width="172" height="62" rx="10" fill="#FFF4E8" stroke="#EA580C" stroke-width="2"/><text x="1620.0" y="180.9" text-anchor="middle" font-family="Arial, 'Liberation Sans', Helvetica, sans-serif" font-size="14" font-weight="400" fill="#1E293B">Receive inconsistent</text><text x="1620.0" y="198.9" text-anchor="middle" font-family="Arial, 'Liberation Sans', Helvetica, sans-serif" font-size="14" font-weight="400" fill="#1E293B">follow-up</text><circle cx="1704.0" cy="156.0" r="10" fill="#EA580C"/><text x="1704.0" y="161.0" text-anchor="middle" font-family="Arial, 'Liberation Sans', Helvetica, sans-serif" font-size="14" font-weight="700" fill="white">!</text><circle cx="1840.0" cy="185.0" r="18" fill="white" stroke="#B91C1C" stroke-width="5"/><text x="1840.0" y="227.4" text-anchor="middle" font-family="Arial, 'Liberation Sans', Helvetica, sans-serif" font-size="12.5" font-weight="700" fill="#1E293B">Enquiry closed</text><rect x="964.0" y="295.0" width="22.7" height="16" fill="white" opacity="0.92"/><text x="967.0" y="307.0" text-anchor="start" font-family="Arial, 'Liberation Sans', Helvetica, sans-serif" font-size="12.5" font-weight="700" fill="#334155">No</text><rect x="821.3" y="165.0" width="47.7" height="16" fill="white" opacity="0.92"/><text x="866.0" y="177.0" text-anchor="end" font-family="Arial, 'Liberation Sans', Helvetica, sans-serif" font-size="12.5" font-weight="700" fill="#334155">Resent</text><rect x="1051.5" y="343.0" width="27.6" height="16" fill="white" opacity="0.92"/><text x="1054.5" y="355.0" text-anchor="start" font-family="Arial, 'Liberation Sans', Helvetica, sans-serif" font-size="12.5" font-weight="700" fill="#334155">Yes</text><circle cx="42" cy="671" r="10" fill="white" stroke="#16A34A" stroke-width="2.5"/><text x="64" y="676" font-family="Arial, 'Liberation Sans', Helvetica, sans-serif" font-size="14" fill="#1E293B">Start event</text><rect x="161.6875" y="660" width="26" height="22" rx="5" fill="#EEF4FF" stroke="#2563EB" stroke-width="2"/><text x="195.6875" y="676" font-family="Arial, 'Liberation Sans', Helvetica, sans-serif" font-size="14" fill="#1E293B">Activity</text><rect x="270.03125" y="660" width="26" height="22" rx="5" fill="#FFF4E8" stroke="#EA580C" stroke-width="2"/><text x="304.03125" y="676" font-family="Arial, 'Liberation Sans', Helvetica, sans-serif" font-size="14" fill="#1E293B">Pain point</text><polygon points="409.28125,659 422.28125,671 409.28125,683 396.28125,671" fill="#FFF8DB" stroke="#B45309" stroke-width="2"/><text x="430.28125" y="676" font-family="Arial, 'Liberation Sans', Helvetica, sans-serif" font-size="14" fill="#1E293B">Decision</text><circle cx="525.953125" cy="671" r="10" fill="white" stroke="#B91C1C" stroke-width="4"/><text x="547.953125" y="676" font-family="Arial, 'Liberation Sans', Helvetica, sans-serif" font-size="14" fill="#1E293B">End event</text></svg>